# xmcd
# 
# Track frame offsets:
#     150
#     14970
#     30937
#     47785
#     72665
#     95572
#     113042
#     129620
#     137900
#     158250
#     176320
#     201872
#     227255
#     248875
# 
# Disc length: 4091
# 
# Revision: 15
# Processed by: cddbd v1.5.2PL0 Copyright (c) Steve Scherf et al.
# Submitted via: fre:ac v1.0.17
# 
DISCID=b90ff90e
DTITLE=モンゴル800  - MESSAGE
DYEAR=2001
DGENRE=Punk Rock
TTITLE0=あなたに
TTITLE1=Song for you
TTITLE2=小さな恋のうた
TTITLE3=Melody
TTITLE4=月灯りのしたで
TTITLE5=For Life
TTITLE6=親知らず -Summer Again-
TTITLE7=HEY Mommy
TTITLE8=Marriage Blue
TTITLE9=矛盾の上に咲く花
TTITLE10=琉球愛歌
TTITLE11=Dear My Lovers
TTITLE12=夢叶う
TTITLE13=Dandelion
EXTD=YEAR: 2001
EXTT0=
EXTT1=
EXTT2=
EXTT3=
EXTT4=
EXTT5=
EXTT6=
EXTT7=
EXTT8=
EXTT9=
EXTT10=
EXTT11=
EXTT12=
EXTT13=
PLAYORDER=
